<svg xmlns="http://www.w3.org/2000/svg" xmlns:xlink="http://www.w3.org/1999/xlink" width="195.006" height="93.949" viewBox="0 0 195.006 93.949">
  <defs>
    <clipPath id="clip-path">
      <rect id="Rectangle_2" data-name="Rectangle 2" width="195.006" height="93.949"/>
    </clipPath>
  </defs>
  <g id="logo" transform="translate(0 0)">
    <path id="Path_1" data-name="Path 1" d="M107.24,13.164h-1.865V6.484H98.543v6.682H96.667V.605h1.871V5.744h6.822V.611h1.879Z" transform="translate(8.265 0.052)"/>
    <g id="Group_2" data-name="Group 2" transform="translate(0 0)">
      <g id="Group_1" data-name="Group 1" clip-path="url(#clip-path)">
        <path id="Path_2" data-name="Path 2" d="M88.517,6.067c0-.007.007-.014.011-.016.035-.014.069-.028.105-.04a1.793,1.793,0,0,0,1.142-1.1,3.862,3.862,0,0,0,.143-2.251,1.453,1.453,0,0,0-.889-1.093,3.437,3.437,0,0,0-.977-.236c-.443-.039-.892-.01-1.341-.01V12.463c.445,0,.874.014,1.3,0a7.925,7.925,0,0,0,1.181-.112,2.456,2.456,0,0,0,1.9-1.452,3.739,3.739,0,0,0,.2-2.172,2.967,2.967,0,0,0-1.677-2.174c-.352-.186-.731-.322-1.1-.482m1.311-.028a5.268,5.268,0,0,1,2.307,1.037,3.3,3.3,0,0,1,.709,4.337,3.554,3.554,0,0,1-1.763,1.309,7.194,7.194,0,0,1-2.572.453c-1.184.012-2.369,0-3.553,0-.038,0-.076,0-.132-.007V.6a1.179,1.179,0,0,1,.164-.016c1.069.008,2.14-.011,3.207.035a4.432,4.432,0,0,1,2.662.881,2.439,2.439,0,0,1,.89,2.366A2.563,2.563,0,0,1,90.131,5.9c-.085.04-.172.078-.3.138" transform="translate(7.253 0.05)"/>
        <path id="Path_3" data-name="Path 3" d="M71.679,7.062a7.877,7.877,0,0,0,.356,2.379,5.031,5.031,0,0,0,1.391,2.312,3.5,3.5,0,0,0,2.937.905A3.619,3.619,0,0,0,78.927,11a6.7,6.7,0,0,0,1.061-3.216,8.726,8.726,0,0,0-.306-3.369,5.145,5.145,0,0,0-1.42-2.379,3.6,3.6,0,0,0-4.114-.5,4.347,4.347,0,0,0-1.892,2.232,8.2,8.2,0,0,0-.576,3.3m4.153,6.352A5.823,5.823,0,0,1,70.5,10.086a6.979,6.979,0,0,1-.7-3.67,6.6,6.6,0,0,1,1.169-3.467A5.714,5.714,0,0,1,74.854.477,5.869,5.869,0,0,1,80.988,3.36a7.026,7.026,0,0,1,.905,4.093,6.7,6.7,0,0,1-1.026,3.228,5.747,5.747,0,0,1-3.381,2.511,6.179,6.179,0,0,1-1.654.223" transform="translate(5.967 0.033)"/>
        <path id="Path_4" data-name="Path 4" d="M66.206,1.461A6.914,6.914,0,0,0,64.587.838a3.85,3.85,0,0,0-2.462.138,1.566,1.566,0,0,0-.61,2.517,5.929,5.929,0,0,0,1.4,1.2c.859.593,1.724,1.176,2.566,1.79a5.83,5.83,0,0,1,1.6,1.62,3.335,3.335,0,0,1,.085,3.621,3.092,3.092,0,0,1-1.6,1.266,7.148,7.148,0,0,1-5.248-.1.5.5,0,0,1-.257-.234c-.225-.409-.461-.813-.694-1.219a.118.118,0,0,1-.008-.1c.09.064.18.127.268.192a5.949,5.949,0,0,0,2.872,1.169,4.082,4.082,0,0,0,2.11-.25,2.028,2.028,0,0,0,.99-2.9,4.928,4.928,0,0,0-1.4-1.559c-.77-.584-1.564-1.137-2.341-1.711a8.752,8.752,0,0,1-1.625-1.463A2.832,2.832,0,0,1,59.6,2.262,2.56,2.56,0,0,1,61.015.545,5.373,5.373,0,0,1,63.9.015c.456.03.909.123,1.361.2a.553.553,0,0,1,.423.316c.139.276.308.536.462.8a1.384,1.384,0,0,1,.059.129" transform="translate(5.074 0)"/>
        <path id="Path_5" data-name="Path 5" d="M114.46,3.588l-2.151,5.184h4.3c-.716-1.727-1.426-3.436-2.153-5.184m.64-3.22,5.332,12.82h-1.983q-.765-1.838-1.533-3.68H112q-.762,1.827-1.532,3.676h-.748Q112.4,6.76,115.053.376Z" transform="translate(9.382 0.031)"/>
        <path id="Path_6" data-name="Path 6" d="M41.25,33.041c.1-1.165-1.019-2.222-1.946-1.138a4.793,4.793,0,0,0-.549.935c-1.066,2.194-2.051,4.444-2.994,6.706a13.373,13.373,0,0,0-1.176,3.968c-.021.572.347,1.243.943.85a9.354,9.354,0,0,0,1.4-1.668c.706-1.042,1.255-2.179,1.9-3.259a22.483,22.483,0,0,0,2.126-5.116,4.543,4.543,0,0,0,.29-1.252Z" transform="translate(2.957 2.689)"/>
        <path id="Path_7" data-name="Path 7" d="M42.188,28.045a3.583,3.583,0,0,0,1.1-1.3c.646-1.11,1.243-2.246,1.881-3.367.409-.833,1.248-1.843.807-2.793a1.67,1.67,0,0,0-2.48-.322,12.045,12.045,0,0,0-1.348,2.182,10.718,10.718,0,0,0-1.574,4.486v.027c-.005,1,.7,1.653,1.616,1.09" transform="translate(3.469 1.696)"/>
        <path id="Path_8" data-name="Path 8" d="M60.784,27.222a1.215,1.215,0,0,0,1.122,1.025c.684-.009,1.154-.68,1.475-1.216.927-1.648,1.865-3.291,2.788-4.939a1.568,1.568,0,0,0,.071-1.6,1.736,1.736,0,0,0-2.418-.329,5.187,5.187,0,0,0-.884,1.2,18.484,18.484,0,0,0-2.02,4.737,2.389,2.389,0,0,0-.138,1.1Z" transform="translate(5.195 1.693)"/>
        <path id="Path_9" data-name="Path 9" d="M54.776,43.7v.024c.037.445.228.9.675.852.46-.107.786-.673,1.08-1.031A28.154,28.154,0,0,0,58.777,40.1c.411-.727.858-1.439,1.191-2.189a22.658,22.658,0,0,0,1.521-4.591c.32-1.651-1.2-2.673-2.161-.977a73.407,73.407,0,0,0-3.488,7.613c-.223.556-.432,1.12-.614,1.692a6.564,6.564,0,0,0-.449,2.052" transform="translate(4.683 2.69)"/>
        <path id="Path_10" data-name="Path 10" d="M134.232,25.367c.656-1.391,1.389-2.739,2.134-4.093a5.227,5.227,0,0,0,.6-1.48,1.689,1.689,0,0,0-1.6-2.048c-.877.021-1.315.976-1.617,1.688-2.192,4.957-4.341,9.944-6.319,14.991-1.056,2.523-2.187,5.017-3.2,7.559-1.687,4.381-3.132,8.866-4.446,13.37a15.545,15.545,0,0,0-.753,4.144c0,.385.03.671.1.683h0c.06.01.142-.194.239-.5.087-.281.18-.573.3-.847.3-.733.78-1.372,1.109-2.092.629-1.391.881-2.912,1.411-4.337.569-1.612,1.214-3.2,1.872-4.777,1.486-3.49,2.9-7.011,4.661-10.377,2.113-3.834,3.666-7.923,5.506-11.883" transform="translate(10.178 1.517)"/>
        <path id="Path_11" data-name="Path 11" d="M159.04,31.182a1.952,1.952,0,0,0-2.118-.42,9.284,9.284,0,0,0-2.522,1.43c-1.566,1.109-3.109,2.255-4.588,3.477a12.254,12.254,0,0,1-1.039.813.678.678,0,0,1-.431.136l-.011,0c-.3-.125-.147-.618-.11-.876a15.317,15.317,0,0,0,.515-2.442c.021-.465-.254-.881-.724-.5a3.508,3.508,0,0,0-.678.872c-.729,1.2-1.45,2.4-2.112,3.635a7.275,7.275,0,0,1-1.328,2.058,2.834,2.834,0,0,1-2.135.525c-1.542-.422.461-3.526.689-4.484.531-1.853-1.275-2.2-2.618-1.471-2.646,1.648-4.919,3.843-7.394,5.729a11.148,11.148,0,0,1-1.112.763c-.194.107-.341.156-.407.125-.142-.115.131-.531.259-.724a14.514,14.514,0,0,1,4.852-4.494c.741-.459,1.519-.856,2.226-1.366,1.064-.714.795-1.875-.57-1.71-3.164.9-7.769,5.9-9.577,8.621a2.339,2.339,0,0,0-.031,2.78c.88.884,2.145.431,3.017-.234,2.3-1.613,4.4-3.3,6.547-5.139a2.2,2.2,0,0,1,.8-.511c.952-.089-.112,2.5,2.263,3.474a3.23,3.23,0,0,0,.649.192c.576.131,1.161-.025,1.525.33.217.279.151.673.247,1,.249.954,1.319.965,1.986.379.852-.727,1.577-1.6,2.411-2.349,2.15-1.957,4.41-3.8,6.668-5.632,1.453-1.242.468.722.263,1.338-.783,2.246-2.919,5.061-1.526,7.405.558.751,1.106.289,1.241-.469a10.377,10.377,0,0,1,.989-3.024c1.087-2.211,2.244-4.385,3.387-6.569.393-.779,1.018-1.842.5-2.667" transform="translate(10.912 2.619)"/>
        <path id="Path_12" data-name="Path 12" d="M51.809,35.227c.2-.152.57-.406.765-.363l.01,0c.212.083.081.465.007.67a52.268,52.268,0,0,0-2.238,5.38c-.359,1.069-.511,2.588.508,3.339.934.473,1.058-.9,1.172-1.513a15.5,15.5,0,0,1,1.928-4.411c.892-1.749,1.785-3.514,2.688-5.253,1.11-2.249-.787-2.9-2.635-2.043a6.985,6.985,0,0,0-1.119.661c-2.169,1.538-4.263,3.2-6.408,4.775-.2.123-.428.321-.651.229-.224-.214-.008-.714.036-.993.164-.707.4-1.478.558-2.226.08-.35.042-1.036-.47-.878a2.144,2.144,0,0,0-.9.869,45.162,45.162,0,0,0-3.824,7.2,4.589,4.589,0,0,0-.566,1.98,1.066,1.066,0,0,0,1.61.746,11.474,11.474,0,0,0,1.928-1.66c2.037-1.9,4.1-3.789,6.31-5.512.428-.334.862-.668,1.294-1" transform="translate(3.477 2.622)"/>
        <path id="Path_13" data-name="Path 13" d="M181.531,15.489a1.089,1.089,0,0,0-1.462-.272,3.191,3.191,0,0,0-1.05,1.264c-1.844,3.229-3.381,6.613-5.064,9.921-2.252,4.379-4.254,8.946-7.653,12.629a23.573,23.573,0,0,1-5.789,5.067c-.427.214-1.824,1.012-2.189.711a.2.2,0,0,1-.037-.131,1.928,1.928,0,0,1,.378-.775c1.17-1.685,2.128-3.195,3.292-4.772a14.259,14.259,0,0,1,4.4-3.758,32.672,32.672,0,0,0,2.928-1.848c.751-.684.1-1.368-.759-1.292a2.992,2.992,0,0,0-1.027.28c-2.879,1.3-5.094,3.6-7.2,5.876a31.734,31.734,0,0,0-3.458,4.307,5.654,5.654,0,0,0-.669,1.32,2.109,2.109,0,0,0,2.743,2.827,17.263,17.263,0,0,0,6-3.893c.294-.279.62-.643.929-.878.417-.3.306.144.21.487-2.028,6.4-4.493,12.808-5.047,19.5h0c.043.023.136-.215.258-.566.09-.252.183-.525.294-.784a36.619,36.619,0,0,0,1.951-4.367c.544-1.937,1.342-3.787,2.031-5.677a140.468,140.468,0,0,1,9.066-20.828c1.8-3.418,3.7-6.787,5.509-10.2.437-.849.86-1.7,1.254-2.575a1.78,1.78,0,0,0,.15-1.575" transform="translate(13.34 1.287)"/>
        <path id="Path_14" data-name="Path 14" d="M118.1,40.005a8.5,8.5,0,0,1-3.842,3.3c-.135.039-.228.042-.265.005l0-.005c-.115-.5,3.923-4.043,4.445-3.953.054.168-.227.479-.334.655m4.93-3.7a11.591,11.591,0,0,0,1.922-1.458,1.041,1.041,0,0,0,.276-1.178l-1.961.664a1.167,1.167,0,0,1-.661.088c-.765-.2-.547-2.138-1.421-2.582-.779-.407-1.655.173-2.276.645-1.315,1.014-2.524,2.137-3.86,3.12a7.633,7.633,0,0,1-1.552.848,3.269,3.269,0,0,0-.956.555.664.664,0,0,0,.351,1.2c1.495.2,3.481-.96,4.649-1.808.481-.29,1.671-1.485,2.178-1.271l.011.005c.166.088.193.366.06.681A2.94,2.94,0,0,1,118.6,37a25.45,25.45,0,0,0-6.765,5.729c-.435.534-.922,1.252-.541,1.925a2.326,2.326,0,0,0,1.576,1.044,4.02,4.02,0,0,0,2.442-.623,13.706,13.706,0,0,0,6.222-6.737,4.807,4.807,0,0,1,1.5-2.041" transform="translate(9.504 2.71)"/>
        <path id="Path_15" data-name="Path 15" d="M105.379,43.872c.528-.985,1.05-1.982,1.526-2.992a73.4,73.4,0,0,1,6.01-10.187c1.106-1.653,2.179-3.316,3.342-4.922.439-.607.837-1.145,1.324-1.756a3.1,3.1,0,0,1,1.7-1.182,92.451,92.451,0,0,1,10.354-.74l.668-.035c.622-.066,1.807.062,1.562-.651l-.008-.015a2.172,2.172,0,0,0-1.54-.817,15.359,15.359,0,0,0-3.317-.2c-2.1.033-4.218.138-6.321.257A6.13,6.13,0,0,1,118.9,20.6c-.7-.163-1.282-.9-2.044-.686-.472.122-.814.595-1.223.9a2.794,2.794,0,0,1-1.416.512,82.246,82.246,0,0,0-11.611,2.219,6.421,6.421,0,0,0-1.165.4,1.525,1.525,0,0,0-.871.97,1.385,1.385,0,0,0,1.02,1.675c.921.177,1.622-.643,2.415-.985a42.9,42.9,0,0,1,6.847-1.639c.522-.1,1.045-.194,1.569-.288.388-.029,1.725-.47,1.6.2a11.131,11.131,0,0,1-1.016,1.831c-1.658,2.7-3.314,5.36-4.938,8.074-.316.577-.58,1.176-.861,1.769-.674,1.388-1.445,2.724-2.02,4.156-.825,1.917-1.819,3.759-2.573,5.7-.214.558-.5,1.116-.691,1.658-.474,1.049-.314,2.791-1.684,3.189a14.808,14.808,0,0,1-1.636.267A58.423,58.423,0,0,0,91.878,51.8c-.836.228-2.085.718-2.048,1.679a1.434,1.434,0,0,0,1.364,1.189,3.89,3.89,0,0,0,1.478-.169c.788-.215,1.526-.556,2.3-.82a28.2,28.2,0,0,1,2.813-.695,33.591,33.591,0,0,1,5.871-.9,53.261,53.261,0,0,1,6.965-.313c.545,0,1.43-.015,1.712-.49a.413.413,0,0,0-.138-.532,2.2,2.2,0,0,0-1.1-.368,33.614,33.614,0,0,0-4.606-.408c-.874,0-1.75.063-2.62.077-1.45.058-.878-.938-.52-1.813.637-1.5,1.308-3,2.034-4.366" transform="translate(7.68 1.699)"/>
        <path id="Path_16" data-name="Path 16" d="M66.075,55.3c-.637,2.179-6.153,11.96-8.736,16.568A122.533,122.533,0,0,1,47.31,87.787c-.126.158-.439.569-.546.532l0,0c3.083-12.344,10.027-23,18.549-32.415.14-.136.909-1.044.766-.6M98.441,39.711c.608-.491-.308-.4-.636-.35-1.016.142-2,.334-2.993.524-1.425.287-2.6.3-1.963-1.586.239-.724.573-1.353.867-2.027a2.919,2.919,0,0,0,.3-1.317c-.062-1.133-1.5-1.268-2.37-.888a5.391,5.391,0,0,0-1.182.676c-.891.648-1.769,1.324-2.643,2-1.685,1.274-3.173,2.6-4.888,3.8-1,.7-.957.323-.36-.5a14.886,14.886,0,0,1,4.634-4.271c.661-.4,1.346-.76,2.016-1.143a2.776,2.776,0,0,0,1.21-1.007c.34-.765-.574-1.279-1.271-1.074a4.624,4.624,0,0,0-1.316.612A30.9,30.9,0,0,0,85.24,34.92a30.248,30.248,0,0,0-5.525,5.789,4.738,4.738,0,0,1-.6.716,14.805,14.805,0,0,1-1.848,1.191,9.53,9.53,0,0,1-1.409.936c-.541.236-.82.015-.636-.561,2.013-4.155,4.282-8.207,6.365-12.329a11.683,11.683,0,0,0,1.093-2.348.785.785,0,0,0-.911-.927,2.075,2.075,0,0,0-1.239.68,5.8,5.8,0,0,0-.913,1.346c-1.038,1.94-2.08,3.884-3.15,5.809A6.806,6.806,0,0,1,74.13,37.88c-2.582,1.79-5.171,3.584-7.8,5.309-1.71,1.034-1.442.079-.582-1.007,1.585-2.113,3.033-4.388,5.222-5.958.522-.4,1.239-.8,1.463-1.433a1.052,1.052,0,0,0-.744-1.273c-1.244-.417-2.312.8-3.052,1.636-.865,1.014-1.638,2.1-2.424,3.171-1.072,1.495-2.158,2.982-3.127,4.546a7.111,7.111,0,0,0-.924,1.8,1.667,1.667,0,0,0,2.273,1.886,6.436,6.436,0,0,0,1.37-.623A56.555,56.555,0,0,0,72.7,40.936c.212-.156.619-.545.829-.508l.005,0c.107.117-.1.511-.176.711-.853,1.977-1.879,3.88-2.784,5.835a14.319,14.319,0,0,1-1.4,2.579,18.831,18.831,0,0,1-3.082,2.976A99.974,99.974,0,0,0,57.878,61.4c-.454.562-.885,1.156-1.354,1.7l-2.247,2.932c-.914,1.539-1.908,3.044-2.84,4.575a62.919,62.919,0,0,0-6.328,13.672,24.2,24.2,0,0,0-.98,4.786,2.15,2.15,0,0,0,2.08,2.535,4.247,4.247,0,0,0,2.5-2.013c1.64-2.343,3.308-4.672,4.834-7.085,1.823-2.884,3.443-5.888,5.12-8.856,3.293-5.825,6.649-11.624,9.835-17.507.59-1.084,1.191-2.161,1.775-3.251a14.282,14.282,0,0,1,2.274-3.729c1.637-1.628,3.454-3.078,5.221-4.579a2.222,2.222,0,0,1,1.353-.69c1.121.061,1.595.658,2.828-.01a13.417,13.417,0,0,0,1.614-1.109c1.725-1.3,3.478-2.627,5.158-3.953.291-.167,1.5-1.438,1.693-.815a13.144,13.144,0,0,0,.271,1.713A2.668,2.668,0,0,0,93.2,41.639a6.448,6.448,0,0,0,2.346-.567,14.1,14.1,0,0,0,2.9-1.361" transform="translate(3.772 2.341)"/>
        <path id="Path_17" data-name="Path 17" d="M34.1,37.47l-.022-.016a15.259,15.259,0,0,0-7.767-2.237,83.307,83.307,0,0,0-9.726.3c-.574-.009-2.686.189-2.908-.3s1.02-1.634,1.4-2.07q.3-.29.6-.573l0,.007q.194-.187.391-.371.4-.368.818-.727l-.008-.005a53.562,53.562,0,0,1,7.327-5.189,52.169,52.169,0,0,1,5.621-2.807,16.965,16.965,0,0,1,3.4-1.173c1.684-.315,1.513.563,1.028,1.486-.063.1-.118.2-.158.267-.853,1.4-1.649,2.663-2.6,3.962-.513.81-1.464,1.613-1.278,2.642a1.4,1.4,0,0,0,2.356.739,6.42,6.42,0,0,0,1.075-1.782c.246-.457.522-.891.8-1.334.072-.115.14-.229.212-.344h.015c.065-.12.138-.245.214-.374.118-.193.239-.388.356-.581,1.234-1.973,3.032-4.6,1.68-6.368l-.015-.017c-1.735-1.788-5.272-.42-7.29.322a40.268,40.268,0,0,0-6.8,3.356A70.815,70.815,0,0,0,16,28.988c-.851.683-1.674,1.4-2.459,2.157l.018,0q-.4.383-.779.779a4.152,4.152,0,0,0-1.389,3.192,3.069,3.069,0,0,0,1.322,2.14,5.674,5.674,0,0,0,3.375.624c2.019-.16,4.02-.3,6.045-.466a24.417,24.417,0,0,1,8.473.5,13.994,13.994,0,0,1,1.9.791c.525.257,1.275.666,1.236,1.3-.027.589-.695,1.258-1.157,1.747a21.511,21.511,0,0,1-5.918,3.631c-.683.36-1.384.729-2.08,1.053-.765.339-1.57.553-2.335.918a17.765,17.765,0,0,1-3.711,1.488c-.516.157-1.02.345-1.523.538l-.74.285c-1.437.549-2.88,1.088-4.351,1.545l-.447.136q-2.846.845-5.764,1.426c-.972.193-2.185.485-3.051-.178-.881-.7.42-1.7.888-2.158a29.287,29.287,0,0,1,9.215-5.006,42.249,42.249,0,0,1,6.219-1.694L19.7,43.6c.25-.049.5-.094.751-.136a46.161,46.161,0,0,0,4.641-1.16,10.242,10.242,0,0,0,1.156-.3c.322-.125.228-.261-.018-.329a12.745,12.745,0,0,0-3.622-.069,25.042,25.042,0,0,0-3.387.335c-.691.118-1.384.223-2.074.344A32.641,32.641,0,0,0,12.8,43.371a37.694,37.694,0,0,0-4.121,1.6,41.365,41.365,0,0,0-3.814,1.984c-.12.069-.24.141-.358.213A16.709,16.709,0,0,0,1.2,49.729,4.57,4.57,0,0,0,.136,51.26a2.037,2.037,0,0,0,.507,2.211c1.312,1.332,3.541,1.2,5.233,1.014a42.354,42.354,0,0,0,5.9-1.176c.525-.134,1.051-.27,1.576-.4,1.587-.4,3.182-.954,4.739-1.463.637-.209,1.266-.445,1.89-.689.308-.12.614-.243.922-.366,1.871-.747,3.774-1.41,5.622-2.216.5-.22,1.007-.444,1.511-.666a26.1,26.1,0,0,0,4.918-2.745A11.407,11.407,0,0,0,35.005,43a3.716,3.716,0,0,0-.91-5.527" transform="translate(0 1.686)"/>
      </g>
    </g>
  </g>
</svg>
